<svg id="tpz-logo" 
    xmlns="http://www.w3.org/2000/svg" viewBox="0 0 112 50">
    <style>.st0{fill:#f06292}</style>
    <path class="st0" d="M17.3 14.7h1.2l1.1-4.9 3.7-.5-1.2 5.4h2.7l-.3 1.3h-2.8l-2.3 10.7c0 .2-.1.4-.2.7-.1.3-.1.6-.1.8 0 .4.1.8.3 1.1.2.3.5.5 1.1.5.6 0 1.3-.3 2-1s1.3-1.6 1.9-2.8h1.3c-.6 1.3-1.2 2.4-1.8 3.2-.6.8-1.2 1.5-1.8 2-.6.5-1.1.8-1.6 1-.5.2-1 .3-1.4.3-.7 0-1.2-.1-1.6-.3-.4-.2-.8-.5-1-.9-.2-.4-.4-.8-.5-1.3-.1-.5-.2-1-.2-1.5 0-.4 0-.9.1-1.4.1-.5.1-.9.2-1.2l2.2-9.9h-1.2l.2-1.3z"/>
    <path class="st0" d="M30.4 14.7l-.6 2.9c.3-.4.7-.7 1-1.1.4-.4.7-.7 1.1-1 .4-.3.8-.5 1.2-.7.4-.2.9-.3 1.4-.3.7 0 1.2.2 1.5.5.3.3.5.7.5 1.2 0 .4-.1.8-.2 1.1-.2.3-.3.5-.5.7-.2.2-.4.3-.7.4-.2.1-.4.1-.6.1-.2 0-.4 0-.5-.1l-.3-.3c-.1-.1-.2-.2-.4-.3-.1-.1-.3-.1-.6-.1-.5 0-1.1.2-1.6.5-.6.4-1.1.8-1.6 1.2l-2.8 13h-3.5l3.7-17.7h3.5zM51.8 14.7l-2.6 12c-.1.5-.2 1-.2 1.6 0 .4.1.8.2 1.1.1.3.4.5.9.5.6 0 1.1-.3 1.7-1 .6-.7 1.1-1.6 1.6-2.8h1.3c-.6 1.5-1.1 2.7-1.7 3.5-.6.9-1.1 1.5-1.6 2-.5.4-1 .7-1.5.9-.5.1-.9.2-1.3.2-.8 0-1.4-.3-1.9-.8s-.8-1.4-.9-2.6c-.5 1-1.3 1.8-2.2 2.5-1 .7-2 1-3.1 1-.6 0-1.1-.1-1.7-.3-.5-.2-1-.5-1.4-1-.4-.5-.8-1-1-1.8-.3-.7-.4-1.6-.4-2.6 0-.8.1-1.7.3-2.6.2-.9.4-1.8.8-2.8.3-.9.8-1.8 1.3-2.6s1.1-1.6 1.8-2.2c.7-.6 1.4-1.2 2.2-1.6.8-.4 1.7-.6 2.7-.6.6 0 1.1.1 1.7.4.6.3 1 .8 1.2 1.5l.4-1.7h3.4zm-9.9 15.2c.4 0 .8-.1 1.2-.3.4-.2.8-.5 1.1-.8.4-.3.7-.7 1-1.2.3-.5.5-1 .6-1.5l1.7-8c-.1-.4-.2-.8-.5-1.1-.3-.3-.7-.5-1.2-.5-1 0-1.8.4-2.6 1.1-.8.7-1.4 1.6-1.9 2.6s-.9 2.1-1.2 3.2-.4 2.2-.4 3c0 1.3.2 2.3.6 2.8.4.5.9.7 1.6.7z"/>
    <path class="st0" d="M59.7 13.4l-.6 2.7c.5-.5 1.1-.9 1.8-1.1.7-.3 1.4-.4 2.2-.4.6 0 1.2.1 1.7.3.5.2 1 .6 1.3 1 .4.5.7 1.1.9 1.8s.3 1.7.3 2.7c0 .8-.1 1.6-.2 2.5-.1.9-.3 1.8-.6 2.7s-.6 1.8-1 2.6-1 1.6-1.6 2.2c-.6.6-1.4 1.2-2.2 1.6-.8.4-1.8.6-2.9.6-.6 0-1.2-.2-1.6-.5-.5-.3-.9-.7-1.2-1.3l-2 9.5-3.7.9 5.9-27.8h3.5zm1.7 3.5c-.5 0-1 .2-1.5.5s-.9.7-1.3 1.3l-2.3 10.5c.3.4.6.8.9 1 .4.2.7.3 1 .3 1.1 0 1.9-.4 2.6-1.1.7-.7 1.3-1.6 1.7-2.6.4-1 .7-2.1.9-3.2.2-1.1.3-2.1.3-2.9 0-.7-.1-1.3-.2-1.8s-.3-.8-.6-1.1c-.2-.3-.5-.5-.8-.6-.1-.3-.4-.3-.7-.3zM74.4 14.7l-2.6 12c-.1.4-.1.8-.1 1.2 0 .7.2 1.2.5 1.5.3.3.7.5 1.1.5.3 0 .6-.1 1-.2.4-.2.7-.4 1-.7.3-.3.6-.7.9-1.2.3-.5.5-1.1.6-1.7l2.4-11.3h3.5l-4.3 20.5c-.3 1.3-.5 2.3-.9 3.1-.3.8-.7 1.4-1.1 1.8-.4.4-.8.7-1.3.9-.5.2-1 .2-1.6.2-1.1 0-2-.2-2.8-.7-.8-.5-1.1-1.3-1.1-2.5 0-.6.2-1.1.5-1.6s.8-1 1.3-1.4c.5-.4 1.1-.8 1.8-1.2s1.3-.7 2-.9l.5-2.2c-.6.7-1.2 1.2-1.9 1.5s-1.3.5-1.9.5c-.5 0-1-.1-1.5-.3-.5-.2-.9-.5-1.2-.9-.4-.4-.6-.9-.8-1.5-.2-.6-.3-1.2-.3-2 0-.6.1-1.2.2-1.8L70.7 15h3.7zm-2 24.7c.7 0 1.2-.4 1.5-1.1s.7-1.7.9-3l.2-1.1c-1.3.6-2.3 1.2-3 1.9-.7.7-1 1.3-1 2 0 .4.1.7.3 1 .3.2.7.3 1.1.3zm21.6-10c-.1 0-.3-.2-.3-.3-.1-.2-.1-.3-.1-.4 0-.4.2-.8.6-1 .4-.2.8-.4 1.2-.4.4 0 .8.1 1.1.4.3.3.5.7.5 1.3 0 .4-.1.8-.4 1.1-.2.4-.6.7-1 1.1-.4.3-.9.6-1.5.8s-1.2.3-1.9.3h-8.9l9-15.7h-2.7c-.5 0-1 0-1.5.1-.4.1-.7.2-.7.5 0 .2.1.3.2.5.1.1.2.3.2.5 0 .3-.2.5-.5.8-.4.3-.8.4-1.3.4-1 0-1.5-.7-1.5-2.1 0-.4.1-.7.2-1 .1-.3.4-.6.7-.8.3-.2.7-.4 1.3-.5.5-.1 1.2-.2 2-.2H97L88.2 30h.8c.4 0 .8 0 1.2.1.4 0 .8 0 1.3.1h1c.4 0 .8-.1 1.1-.2.1-.2.3-.4.4-.6z"/>
</svg>